<svg width="24" height="24" viewBox="0 0 24 24" fill="none" xmlns="http://www.w3.org/2000/svg">
<path d="M9 5C9 5.28333 9.096 5.52067 9.288 5.712C9.48 5.90333 9.71733 5.99933 10 6H11V7C11 7.28333 11.096 7.52067 11.288 7.712C11.48 7.90333 11.7173 7.99933 12 8C12.2827 8.00067 12.52 7.90467 12.712 7.712C12.904 7.51933 13 7.282 13 7V6H14C14.2833 6 14.5207 5.904 14.712 5.712C14.9033 5.52 14.9993 5.28267 15 5C15.0007 4.71733 14.9047 4.47967 14.712 4.287C14.5193 4.09433 14.282 3.99867 14 4H13V3C13 2.71667 12.904 2.479 12.712 2.287C12.52 2.095 12.2827 1.99933 12 2C11.7173 2.00067 11.4797 2.09667 11.287 2.288C11.0943 2.47933 10.9987 2.71667 11 3V4H10C9.71667 4 9.479 4.096 9.287 4.288C9.095 4.48 8.99933 4.71733 9 5ZM3 20C3 20.55 3.19567 21.0207 3.587 21.412C3.97833 21.8033 4.44933 21.9993 5 22H19C19.55 22 20.0207 21.804 20.412 21.412C20.8033 21.02 20.9993 20.5493 21 20V14H3V20ZM3 12H21V6C21 5.45 20.804 4.979 20.412 4.587C20.02 4.195 19.5493 3.99933 19 4H17.9C17.6333 4 17.4123 4.1 17.237 4.3C17.0617 4.5 16.9827 4.73333 17 5C17 6.38333 16.5167 7.56233 15.55 8.537C14.5833 9.51167 13.4 9.99933 12 10C10.6 10.0007 9.41667 9.513 8.45 8.537C7.48333 7.561 7 6.382 7 5C7 4.73333 6.91667 4.5 6.75 4.3C6.58333 4.1 6.36667 4 6.1 4H5C4.45 4 3.979 4.19567 3.587 4.587C3.195 4.97833 2.99933 5.44933 3 6V12Z" fill="white"/>
</svg>
