<svg width="21" height="20" viewBox="0 0 21 20" fill="none" xmlns="http://www.w3.org/2000/svg">
<g clip-path="url(#clip0_5668_226)">
<path fill-rule="evenodd" clip-rule="evenodd" d="M5.86538 15.0302C5.85942 11.025 5.85645 9.02267 5.85645 9.02267C5.92669 8.11899 6.33798 7.72966 7.08987 7.85461C7.55267 8.07083 7.78258 8.55499 7.77918 9.30627C7.9482 11.5092 8.03293 12.6107 8.03293 12.6107C8.18833 13.0854 8.58727 13.0908 9.23013 12.6271C13.2208 8.60003 15.216 6.58629 15.216 6.58629C16.1577 6.05397 16.7572 6.57768 16.4677 7.35402C14.0008 10.1797 12.7674 11.5926 12.7674 11.5926C12.681 11.9557 12.8687 12.0556 13.3294 11.8931C16.4494 9.36739 18.0094 8.10491 18.0094 8.10491C18.9546 7.71597 19.4693 8.34931 18.88 9.15627C16.0986 11.6816 14.708 12.9443 14.708 12.9443C14.5202 13.3643 14.6957 13.5589 15.2342 13.5283C18.0154 11.7262 19.4059 10.8249 19.4059 10.8249C19.7793 10.7873 20.0334 10.8488 20.168 11.0086C20.4034 11.2988 20.4094 11.566 20.1859 11.8096C17.441 13.801 16.0683 14.7967 16.0683 14.7967C15.8125 15.2017 15.9333 15.4047 16.4311 15.4058C18.5837 14.3486 19.66 13.8202 19.66 13.8202C20.0454 13.7278 20.2813 13.7999 20.3673 14.0372C20.4414 14.3118 20.3085 14.5621 19.9683 14.7881C15.5719 17.6447 12.824 19.2276 11.7243 19.5359C9.56613 19.8775 7.85498 19.3154 6.59086 17.8504C6.18469 17.0255 5.94287 16.0854 5.86538 15.0302Z" fill="white"/>
<path fill-rule="evenodd" clip-rule="evenodd" d="M1.33219 9.52342C2.70868 10.7846 3.98426 11.8638 5.15936 12.7608C5.15936 12.7608 5.15936 11.7651 5.15936 9.77366C3.03097 8.68318 1.967 8.1383 1.967 8.1383C1.06694 8.09486 0.855344 8.5567 1.33219 9.52342Z" fill="white"/>
<path fill-rule="evenodd" clip-rule="evenodd" d="M6.95933 7.19512C6.04012 7.16182 5.83447 7.49555 5.83447 7.49555C5.83447 7.49555 5.83617 5.54606 5.84809 1.8637C6.187 0.824912 7.48727 1.07717 7.60776 1.96358C8.0067 5.30127 8.20595 6.9699 8.20595 6.9699C8.6249 7.21002 8.88546 7.15948 8.98765 6.8187C8.93826 2.76969 8.91357 0.745409 8.91357 0.745409C9.25632 -0.262043 10.5642 -0.00430422 10.818 0.995704C10.8422 5.11208 10.8546 7.17009 10.8546 7.17009C11.0982 7.2778 11.334 7.23354 11.5618 7.03651C12.0455 3.82144 12.2873 2.21392 12.2873 2.21392C12.7944 1.36432 13.5778 1.8187 13.7566 2.48106C13.4543 5.78505 13.3032 7.43724 13.3032 7.43724C10.7759 9.9183 9.51224 11.1584 9.51224 11.1584C9.12135 11.5838 8.81267 11.3017 8.76839 11.1086C8.64747 9.22846 8.43758 8.1799 8.43758 8.1799C8.21788 7.57239 7.65844 7.15516 6.95933 7.19512Z" fill="white"/>
</g>
<defs>
<clipPath id="clip0_5668_226">
<rect width="20" height="20" fill="white" transform="translate(0.5)"/>
</clipPath>
</defs>
</svg>
