<svg width="17" height="16" viewBox="0 0 17 16" fill="none" xmlns="http://www.w3.org/2000/svg">
<g clip-path="url(#clip0_5668_220)">
<path d="M9.64396 12.7432L5.89396 2.74316C5.84482 2.61211 5.75686 2.49917 5.64183 2.41944C5.52679 2.33972 5.39017 2.297 5.25021 2.297C5.11024 2.297 4.97362 2.33972 4.85858 2.41944C4.74355 2.49917 4.65559 2.61211 4.60645 2.74316L0.856455 12.7432C0.794432 12.9135 0.802158 13.1013 0.877951 13.266C0.953745 13.4306 1.09147 13.5586 1.26118 13.6222C1.43089 13.6858 1.61884 13.6798 1.78416 13.6056C1.94948 13.5313 2.07879 13.3948 2.14395 13.2257L3.27395 10.2125C3.27841 10.2006 3.28638 10.1904 3.29683 10.1831C3.30727 10.1758 3.31968 10.1719 3.33239 10.1719H7.16802C7.18073 10.1719 7.19314 10.1758 7.20358 10.1831C7.21403 10.1904 7.222 10.2006 7.22646 10.2125L8.35645 13.2257C8.42162 13.3948 8.55093 13.5313 8.71625 13.6056C8.88157 13.6798 9.06952 13.6858 9.23923 13.6222C9.40893 13.5586 9.54666 13.4306 9.62246 13.266C9.69825 13.1013 9.70598 12.9135 9.64396 12.7432ZM3.83645 8.71191L5.19177 5.09785C5.19627 5.08599 5.20426 5.07578 5.2147 5.06858C5.22514 5.06137 5.23752 5.05752 5.25021 5.05752C5.26289 5.05752 5.27527 5.06137 5.28571 5.06858C5.29615 5.07578 5.30414 5.08599 5.30864 5.09785L6.66396 8.71254C6.66748 8.72198 6.66868 8.73214 6.66743 8.74215C6.66618 8.75215 6.66253 8.76171 6.65679 8.77C6.65105 8.77829 6.64339 8.78507 6.63446 8.78975C6.62553 8.79444 6.6156 8.7969 6.60552 8.79691H3.89489C3.88481 8.7969 3.87488 8.79444 3.86595 8.78975C3.85702 8.78507 3.84936 8.77829 3.84362 8.77C3.83788 8.76171 3.83423 8.75215 3.83298 8.74215C3.83173 8.73214 3.83293 8.72198 3.83645 8.71254V8.71191ZM13.0243 5.29691C11.7205 5.28754 10.553 6.04285 10.0555 7.21566C9.98424 7.3835 9.98255 7.57277 10.0508 7.74184C10.1191 7.91092 10.2517 8.04595 10.4196 8.11723C10.5874 8.1885 10.7767 8.19019 10.9458 8.12191C11.1148 8.05364 11.2499 7.921 11.3211 7.75316C11.5986 7.10035 12.2515 6.67691 12.9874 6.67191C13.9974 6.66504 14.8127 7.50004 14.8127 8.51098C14.8127 8.52314 14.808 8.53483 14.7995 8.54358C14.7911 8.55233 14.7796 8.55745 14.7674 8.55785C14.0824 8.57691 13.2699 8.62254 12.5449 8.70785C10.834 8.9091 9.81271 9.84191 9.81271 11.2032C9.81271 11.9279 10.0865 12.5782 10.5836 13.0369C11.0502 13.4666 11.6877 13.7032 12.3752 13.7032C13.344 13.7032 14.178 13.4532 14.8108 12.9775H14.8127C14.8123 13.0678 14.8297 13.1573 14.8639 13.2409C14.8981 13.3244 14.9484 13.4004 15.012 13.4645C15.0755 13.5287 15.1511 13.5796 15.2344 13.6145C15.3176 13.6494 15.407 13.6676 15.4972 13.668C15.5875 13.6684 15.677 13.651 15.7606 13.6168C15.8441 13.5826 15.9201 13.5323 15.9842 13.4687C16.0484 13.4052 16.0993 13.3296 16.1342 13.2463C16.1691 13.1631 16.1873 13.0738 16.1877 12.9835V8.51473C16.1877 6.7591 14.7815 5.30973 13.0243 5.29691ZM12.3752 12.3282C11.8274 12.3282 11.1877 12.0335 11.1877 11.2032C11.1877 10.8697 11.3074 10.6363 11.5761 10.446C11.8377 10.2607 12.2386 10.1285 12.7055 10.0735C13.3655 9.99566 14.1061 9.95285 14.7411 9.93379C14.7496 9.93378 14.758 9.93549 14.7658 9.93883C14.7736 9.94216 14.7806 9.94705 14.7865 9.95319C14.7923 9.95932 14.7969 9.96659 14.7998 9.97453C14.8028 9.98248 14.8041 9.99095 14.8036 9.99941C14.719 11.5657 13.9208 12.3282 12.3752 12.3282Z" fill="white"/>
</g>
<defs>
<clipPath id="clip0_5668_220">
<rect width="16" height="16" fill="white" transform="translate(0.5)"/>
</clipPath>
</defs>
</svg>
