<svg width="31" height="28" viewBox="0 0 31 28" fill="none" xmlns="http://www.w3.org/2000/svg">
<path fill-rule="evenodd" clip-rule="evenodd" d="M11.4167 4.75935C10.5581 2.8239 11.7076 0.148281 14.1445 0.118092C16.8273 -0.0556603 19.5814 1.3524 20.9641 3.51244C22.6317 5.99843 19.6904 10.7683 19.319 10.9246C20.437 10.4919 21.4153 9.7667 22.3907 9.04357C23.7809 8.01293 25.1654 6.98658 26.9403 6.81773C30.0077 6.81867 30.8203 10.5466 30.1679 12.8246C29.7148 15.9463 26.3527 18.4318 23.0568 17.4065C22.8324 17.3502 22.5705 17.2745 22.3081 17.1985C21.3021 16.9074 20.2888 16.6142 21.3532 17.4084C21.5409 17.5485 21.7224 17.6996 21.8981 17.8546C22.4581 18.3487 23.1377 18.7823 23.8231 19.2196C25.3726 20.2082 26.9516 21.2156 27.2437 22.9825C27.2822 23.2149 27.2763 23.454 27.2269 23.6843C26.6223 26.5023 22.7549 27.495 20.0895 27.1047C16.9188 26.8528 14.9337 23.8319 15.2689 20.9691C15.4234 18.9594 14.7825 20.594 14.3816 21.6164C14.3289 21.7509 14.2803 21.8749 14.2382 21.9785C14.0458 22.4354 13.8811 22.9553 13.7107 23.4932C13.1277 25.3337 12.478 27.3845 10.4213 27.8417C10.2198 27.8865 10.0111 27.8977 9.80537 27.8806C6.53799 27.6089 4.53986 24.0627 4.60752 21.1769C4.58482 18.4834 7.11465 16.7127 9.6401 16.0399C9.90624 15.969 10.3148 15.782 10.0475 15.7155C9.73029 15.6365 8.99513 15.6175 8.34882 15.6008C7.9324 15.5901 7.55286 15.5802 7.34576 15.556C7.09261 15.5575 6.82466 15.5641 6.54707 15.5709C4.36664 15.6242 1.59196 15.692 0.734425 13.4679C-0.0102457 10.2608 3.07575 7.25165 6.17966 6.54064C8.97595 5.84924 12.57 9.73971 13.0242 10.2471C13.0452 10.2705 13.0806 10.2589 13.0721 10.2286V10.2286C12.7617 9.11815 11.9017 6.15103 11.4167 4.75935ZM13.4075 17.2491C11.0869 15.439 12.4616 11.4148 15.4794 11.2917C17.543 11.071 19.4797 12.7182 19.4358 14.7058C19.5802 17.5652 15.551 19.2704 13.4075 17.2491Z" fill="white"/>
</svg>
