<svg width="29" height="28" viewBox="0 0 29 28" fill="none" xmlns="http://www.w3.org/2000/svg">
<path d="M27.1 0H1.9C1.5287 0 1.1726 0.1475 0.91005 0.41005C0.6475 0.672601 0.5 1.0287 0.5 1.4V26.6C0.5 26.9713 0.6475 27.3274 0.91005 27.59C1.1726 27.8525 1.5287 28 1.9 28H27.1C27.4713 28 27.8274 27.8525 28.09 27.59C28.3525 27.3274 28.5 26.9713 28.5 26.6V1.4C28.5 1.0287 28.3525 0.672601 28.09 0.41005C27.8274 0.1475 27.4713 0 27.1 0ZM8.9 25.2H3.3V19.6H8.9V25.2ZM8.9 16.8H3.3V11.2H8.9V16.8ZM8.9 8.4H3.3V2.8H8.9V8.4ZM17.3 25.2H11.7V19.6H17.3V25.2ZM17.3 16.8H11.7V11.2H17.3V16.8ZM17.3 8.4H11.7V2.8H17.3V8.4ZM25.7 25.2H20.1V19.6H25.7V25.2ZM25.7 16.8H20.1V11.2H25.7V16.8ZM25.7 8.4H20.1V2.8H25.7V8.4Z" fill="white"/>
</svg>
