<svg width="26" height="16" viewBox="0 0 26 16" fill="none" xmlns="http://www.w3.org/2000/svg">
<path d="M14.4557 7.29289C14.0652 7.68342 14.0652 8.31658 14.4557 8.70711L20.8197 15.0711C21.2102 15.4616 21.8434 15.4616 22.2339 15.0711C22.6244 14.6805 22.6244 14.0474 22.2339 13.6569L16.5771 8L22.2339 2.34315C22.6244 1.95262 22.6244 1.31946 22.2339 0.928932C21.8434 0.538408 21.2102 0.538408 20.8197 0.928932L14.4557 7.29289ZM15.5801 8V7H15.1628V8V9H15.5801V8Z" fill="white"/>
<path d="M11.5442 7.29289C11.9347 7.68342 11.9347 8.31658 11.5442 8.70711L5.18024 15.0711C4.78972 15.4616 4.15655 15.4616 3.76603 15.0711C3.3755 14.6805 3.3755 14.0474 3.76603 13.6569L9.42288 8L3.76603 2.34315C3.3755 1.95262 3.3755 1.31946 3.76603 0.928932C4.15655 0.538408 4.78972 0.538408 5.18024 0.928932L11.5442 7.29289ZM9.7207 8V7H10.8371V8V9H9.7207V8Z" fill="white"/>
</svg>
