<svg width="25" height="18" viewBox="0 0 25 18" fill="none" xmlns="http://www.w3.org/2000/svg">
<g clip-path="url(#clip0_5668_553)">
<path d="M1.75903 18C1.51284 18 1.30215 17.8043 1.12698 17.413C0.951804 17.0217 0.864068 16.5507 0.86377 16V2C0.86377 1.45 0.951505 0.979333 1.12698 0.588C1.30245 0.196667 1.51313 0.000666667 1.75903 0H4.44482V18H1.75903Z" fill="white"/>
<path d="M20.8495 18C21.0748 18 21.2677 17.8043 21.428 17.413C21.5884 17.0217 21.6687 16.5507 21.6689 16V2C21.6689 1.45 21.5886 0.979333 21.428 0.588C21.2674 0.196667 21.0746 0.000666667 20.8495 0H18.3911V18H20.8495Z" fill="white"/>
<path d="M16.3286 3.38813H13.8734L13.1719 2.68665H9.6645L8.96301 3.38813H6.50781V4.7911H16.3286M7.2093 13.9104C7.2093 14.2825 7.35711 14.6394 7.62022 14.9025C7.88333 15.1656 8.24018 15.3134 8.61227 15.3134H14.2242C14.5962 15.3134 14.9531 15.1656 15.2162 14.9025C15.4793 14.6394 15.6271 14.2825 15.6271 13.9104V5.49259H7.2093V13.9104Z" fill="white"/>
</g>
<defs>
<clipPath id="clip0_5668_553">
<rect width="24" height="18" fill="white" transform="translate(0.54541)"/>
</clipPath>
</defs>
</svg>
