<svg width="24" height="24" viewBox="0 0 24 24" fill="none" xmlns="http://www.w3.org/2000/svg">
<path d="M19 15C18.7167 15 18.4793 14.904 18.288 14.712C18.0967 14.52 18.0007 14.2827 18 14V13H17C16.7167 13 16.4793 12.904 16.288 12.712C16.0967 12.52 16.0007 12.2827 16 12C15.9993 11.7173 16.0953 11.48 16.288 11.288C16.4807 11.096 16.718 11 17 11H18V10C18 9.71667 18.096 9.47933 18.288 9.288C18.48 9.09667 18.7173 9.00067 19 9C19.2827 8.99933 19.5203 9.09533 19.713 9.288C19.9057 9.48067 20.0013 9.718 20 10V11H21C21.2833 11 21.521 11.096 21.713 11.288C21.905 11.48 22.0007 11.7173 22 12C21.9993 12.2827 21.9033 12.5203 21.712 12.713C21.5207 12.9057 21.2833 13.0013 21 13H20V14C20 14.2833 19.904 14.521 19.712 14.713C19.52 14.905 19.2827 15.0007 19 15ZM4 21C3.45 21 2.97933 20.8043 2.588 20.413C2.19667 20.0217 2.00067 19.5507 2 19V5C2 4.45 2.196 3.97933 2.588 3.588C2.98 3.19667 3.45067 3.00067 4 3H10V21H4ZM12 21V3H18C18.55 3 19.021 3.196 19.413 3.588C19.805 3.98 20.0007 4.45067 20 5V6.1C20 6.36667 19.9 6.58767 19.7 6.763C19.5 6.93833 19.2667 7.01733 19 7C17.6167 7 16.4377 7.48333 15.463 8.45C14.4883 9.41667 14.0007 10.6 14 12C13.9993 13.4 14.487 14.5833 15.463 15.55C16.439 16.5167 17.618 17 19 17C19.2667 17 19.5 17.0833 19.7 17.25C19.9 17.4167 20 17.6333 20 17.9V19C20 19.55 19.8043 20.021 19.413 20.413C19.0217 20.805 18.5507 21.0007 18 21H12Z" fill="white"/>
</svg>
