<svg width="24" height="24" viewBox="0 0 24 24" fill="none" xmlns="http://www.w3.org/2000/svg">
<path d="M5 15C5.28333 15 5.52067 14.904 5.712 14.712C5.90333 14.52 5.99933 14.2827 6 14V13H7C7.28333 13 7.52067 12.904 7.712 12.712C7.90333 12.52 7.99933 12.2827 8 12C8.00067 11.7173 7.90467 11.48 7.712 11.288C7.51933 11.096 7.282 11 7 11H6V10C6 9.71667 5.904 9.47933 5.712 9.288C5.52 9.09667 5.28267 9.00067 5 9C4.71733 8.99933 4.47967 9.09533 4.287 9.288C4.09433 9.48067 3.99867 9.718 4 10V11H3C2.71667 11 2.479 11.096 2.287 11.288C2.095 11.48 1.99933 11.7173 2 12C2.00067 12.2827 2.09667 12.5203 2.288 12.713C2.47933 12.9057 2.71667 13.0013 3 13H4V14C4 14.2833 4.096 14.521 4.288 14.713C4.48 14.905 4.71733 15.0007 5 15ZM20 21C20.55 21 21.0207 20.8043 21.412 20.413C21.8033 20.0217 21.9993 19.5507 22 19V5C22 4.45 21.804 3.97933 21.412 3.588C21.02 3.19667 20.5493 3.00067 20 3H14V21H20ZM12 21V3H6C5.45 3 4.979 3.196 4.587 3.588C4.195 3.98 3.99933 4.45067 4 5V6.1C4 6.36667 4.1 6.58767 4.3 6.763C4.5 6.93833 4.73333 7.01733 5 7C6.38333 7 7.56233 7.48333 8.537 8.45C9.51167 9.41667 9.99933 10.6 10 12C10.0007 13.4 9.513 14.5833 8.537 15.55C7.561 16.5167 6.382 17 5 17C4.73333 17 4.5 17.0833 4.3 17.25C4.1 17.4167 4 17.6333 4 17.9V19C4 19.55 4.19567 20.021 4.587 20.413C4.97833 20.805 5.44933 21.0007 6 21H12Z" fill="white"/>
</svg>
