<svg width="22" height="16" viewBox="0 0 22 16" fill="none" xmlns="http://www.w3.org/2000/svg">
<path d="M1.23473 7.29289C0.844202 7.68342 0.844202 8.31658 1.23473 8.70711L7.59869 15.0711C7.98921 15.4616 8.62238 15.4616 9.0129 15.0711C9.40343 14.6805 9.40343 14.0474 9.0129 13.6569L3.35605 8L9.0129 2.34315C9.40343 1.95262 9.40343 1.31946 9.0129 0.928932C8.62238 0.538408 7.98921 0.538408 7.59869 0.928932L1.23473 7.29289ZM19.5 8V7L1.94183 7V8V9L19.5 9V8Z" fill="white"/>
<path d="M20.7654 7.29289C21.1559 7.68342 21.1559 8.31658 20.7654 8.70711L14.4014 15.0711C14.0109 15.4616 13.3777 15.4616 12.9872 15.0711C12.5967 14.6805 12.5967 14.0474 12.9872 13.6569L18.6441 8L12.9872 2.34315C12.5967 1.95262 12.5967 1.31946 12.9872 0.928932C13.3777 0.538408 14.0109 0.538408 14.4014 0.928932L20.7654 7.29289ZM18.9419 8V7H20.0583V8V9H18.9419V8Z" fill="white"/>
</svg>
