<svg width="25" height="22" viewBox="0 0 25 22" fill="none" xmlns="http://www.w3.org/2000/svg">
<path d="M1.74317 1.20828C1.74317 1.04029 1.96448 0.896535 2.40711 0.777008C2.84973 0.657481 3.38247 0.597616 4.00532 0.597412H19.8404C20.4625 0.597412 20.9948 0.657277 21.4375 0.777008C21.8801 0.896739 22.1018 1.0405 22.1025 1.20828V3.04089H1.74317V1.20828Z" fill="white"/>
<path d="M1.74317 20.7357C1.74317 20.9191 1.96448 21.076 2.40711 21.2065C2.84973 21.337 3.38247 21.4024 4.00532 21.4026H19.8404C20.4625 21.4026 20.9948 21.3372 21.4375 21.2065C21.8801 21.0758 22.1018 20.9188 22.1025 20.7357V18.7349H1.74317V20.7357Z" fill="white"/>
<path d="M16.8052 5.38813H14.35L13.6485 4.68665H10.1411L9.43958 5.38813H6.98438V6.7911H16.8052M7.68586 15.9104C7.68586 16.2825 7.83367 16.6394 8.09678 16.9025C8.35989 17.1656 8.71674 17.3134 9.08883 17.3134H14.7007C15.0728 17.3134 15.4297 17.1656 15.6928 16.9025C15.9559 16.6394 16.1037 16.2825 16.1037 15.9104V7.49259H7.68586V15.9104Z" fill="white"/>
</svg>
