<svg width="16" height="22" viewBox="0 0 16 22" fill="none" xmlns="http://www.w3.org/2000/svg">
<path d="M8.70711 1.23473C8.31658 0.844202 7.68342 0.844202 7.29289 1.23473L0.928932 7.59869C0.538408 7.98921 0.538408 8.62238 0.928932 9.0129C1.31946 9.40343 1.95262 9.40343 2.34315 9.0129L8 3.35605L13.6569 9.0129C14.0474 9.40343 14.6805 9.40343 15.0711 9.0129C15.4616 8.62238 15.4616 7.98921 15.0711 7.59869L8.70711 1.23473ZM8 19.5H9L9 1.94183H8H7L7 19.5H8Z" fill="white"/>
<path d="M8.70711 20.7653C8.31658 21.1558 7.68342 21.1558 7.29289 20.7653L0.928932 14.4013C0.538408 14.0108 0.538408 13.3776 0.928932 12.9871C1.31946 12.5966 1.95262 12.5966 2.34315 12.9871L8 18.644L13.6569 12.9871C14.0474 12.5966 14.6805 12.5966 15.0711 12.9871C15.4616 13.3776 15.4616 14.0108 15.0711 14.4013L8.70711 20.7653ZM8 18.9418H9V20.0582H8H7V18.9418H8Z" fill="white"/>
</svg>
