<svg width="24" height="24" viewBox="0 0 24 24" fill="none" xmlns="http://www.w3.org/2000/svg">
<path d="M9 19C9 18.7167 9.096 18.4793 9.288 18.288C9.48 18.0967 9.71733 18.0007 10 18H11V17C11 16.7167 11.096 16.4793 11.288 16.288C11.48 16.0967 11.7173 16.0007 12 16C12.2827 15.9993 12.52 16.0953 12.712 16.288C12.904 16.4807 13 16.718 13 17V18H14C14.2833 18 14.5207 18.096 14.712 18.288C14.9033 18.48 14.9993 18.7173 15 19C15.0007 19.2827 14.9047 19.5203 14.712 19.713C14.5193 19.9057 14.282 20.0013 14 20H13V21C13 21.2833 12.904 21.521 12.712 21.713C12.52 21.905 12.2827 22.0007 12 22C11.7173 21.9993 11.4797 21.9033 11.287 21.712C11.0943 21.5207 10.9987 21.2833 11 21V20H10C9.71667 20 9.479 19.904 9.287 19.712C9.095 19.52 8.99933 19.2827 9 19ZM3 4C3 3.45 3.19567 2.97933 3.587 2.588C3.97833 2.19667 4.44933 2.00067 5 2H19C19.55 2 20.0207 2.196 20.412 2.588C20.8033 2.98 20.9993 3.45067 21 4V10H3V4ZM3 12H21V18C21 18.55 20.804 19.021 20.412 19.413C20.02 19.805 19.5493 20.0007 19 20H17.9C17.6333 20 17.4123 19.9 17.237 19.7C17.0617 19.5 16.9827 19.2667 17 19C17 17.6167 16.5167 16.4377 15.55 15.463C14.5833 14.4883 13.4 14.0007 12 14C10.6 13.9993 9.41667 14.487 8.45 15.463C7.48333 16.439 7 17.618 7 19C7 19.2667 6.91667 19.5 6.75 19.7C6.58333 19.9 6.36667 20 6.1 20H5C4.45 20 3.979 19.8043 3.587 19.413C3.195 19.0217 2.99933 18.5507 3 18V12Z" fill="white"/>
</svg>
