<svg width="16" height="26" viewBox="0 0 16 26" fill="none" xmlns="http://www.w3.org/2000/svg">
<path d="M8.70711 14.4556C8.31658 14.0651 7.68342 14.0651 7.29289 14.4556L0.928932 20.8196C0.538408 21.2101 0.538408 21.8433 0.928932 22.2338C1.31946 22.6243 1.95262 22.6243 2.34315 22.2338L8 16.5769L13.6569 22.2338C14.0474 22.6243 14.6805 22.6243 15.0711 22.2338C15.4616 21.8433 15.4616 21.2101 15.0711 20.8196L8.70711 14.4556ZM8 15.58H9V15.1627H8H7V15.58H8Z" fill="white"/>
<path d="M8.70711 11.5444C8.31658 11.935 7.68342 11.935 7.29289 11.5444L0.928932 5.18049C0.538408 4.78996 0.538408 4.1568 0.928932 3.76627C1.31946 3.37575 1.95262 3.37575 2.34315 3.76627L8 9.42313L13.6569 3.76627C14.0474 3.37575 14.6805 3.37575 15.0711 3.76627C15.4616 4.1568 15.4616 4.78996 15.0711 5.18049L8.70711 11.5444ZM8 9.72095H9V10.8373H8H7V9.72095H8Z" fill="white"/>
</svg>
